Coordinates
version=1
nRows=26
nColumns=24
inDegrees=yes

Units are S.I. units (second, meters, Newtons, ...)
Angles are in degrees.

endheader
time	pelvis_tilt	pelvis_list	pelvis_rotation	pelvis_tx	pelvis_ty	pelvis_tz	hip_flexion_r	hip_adduction_r	hip_rotation_r	knee_angle_r	ankle_angle_r	subtalar_angle_r	mtp_angle_r	hip_flexion_l	hip_adduction_l	hip_rotation_l	knee_angle_l	ankle_angle_l	subtalar_angle_l	mtp_angle_l	lumbar_extension	lumbar_bending	lumbar_rotation
      0.68616667	      1.26919002	     -0.65398340	      6.26908461	     -0.41953062	      1.06394236	      0.30112508	     12.03506059	      0.93501130	     -5.74130475	    -26.91629365	     14.83676218	     -5.23363460	      4.09643349	     16.21962091	     -4.99923767	     -3.78240476	    -73.70118311	      1.97301242	      6.03315265	      5.06030341	    -10.41985524	      3.92879163	     -0.06895112
      0.69033333	      1.26003980	     -0.44875092	      6.22859685	     -0.41356896	      1.06540999	      0.30102847	     11.44038138	      0.75995210	     -5.70068488	    -26.45444094	     14.94904580	     -5.10993937	      4.11693188	     16.74121012	     -4.69116510	     -4.04418480	    -73.28331345	      2.35946904	      6.55659902	      5.10648408	    -10.38547137	      3.72163204	      0.00236165
      0.69450000	      1.23078802	     -0.21611058	      6.17645552	     -0.40762074	      1.06683221	      0.30092837	     10.87113054	      0.55139022	     -5.64956245	    -26.00033438	     15.00717359	     -5.02254827	      4.13087565	     17.26015709	     -4.34329168	     -4.30665063	    -72.78660316	      2.73193943	      7.07264425	      5.14602857	    -10.34115078	      3.47616098	      0.03709010
      0.69866667	      1.22495717	     -0.00787243	      6.11653970	     -0.40165334	      1.06826672	      0.30083863	     10.26460812	      0.37491696	     -5.59067997	    -25.51188761	     15.09634202	     -4.91548786	      4.15496451	     17.73876924	     -4.03987231	     -4.58057537	    -72.23215155	      3.10781872	      7.65755870	      5.20714309	    -10.31002063	      3.26430300	      0.12130659
      0.70283333	      1.19492465	      0.21504415	      6.05078079	     -0.39569781	      1.06963861	      0.30073236	      9.68957709	      0.17699503	     -5.52908543	    -25.03140992	     15.12328503	     -4.83931909	      4.17078196	     18.22274344	     -3.70940732	     -4.84423380	    -71.60630160	      3.46585466	      8.21684739	      5.25619655	    -10.26576623	      3.02996719	      0.16544975
      0.70700000	      1.18808057	      0.42129683	      5.97135196	     -0.38973128	      1.07099413	      0.30066062	      9.08427747	      0.00383676	     -5.45480042	    -24.53024738	     15.18898828	     -4.75373938	      4.19811000	     18.66575623	     -3.41698880	     -5.12424401	    -70.92726724	      3.82875420	      8.82400434	      5.33040619	    -10.23343974	      2.80924887	      0.26445874
      0.71116667	      1.18234278	      0.63387443	      5.88825549	     -0.38377542	      1.07234214	      0.30057004	      8.47469953	     -0.17754720	     -5.37058442	    -24.01756769	     15.20710116	     -4.68986545	      4.22900553	     19.08782167	     -3.11331258	     -5.39293615	    -70.18049575	      4.17261874	      9.39733039	      5.41824818	    -10.22127129	      2.58092457	      0.36059776
      0.71533333	      1.16172482	      0.84973229	      5.79289774	     -0.37781496	      1.07360510	      0.30050017	      7.89045744	     -0.36467712	     -5.28598278	    -23.52002529	     15.23221678	     -4.63816093	      4.25443522	     19.50691427	     -2.80977845	     -5.66567928	    -69.37551059	      4.50070089	      9.96013085	      5.49429442	    -10.17432741	      2.34726226	      0.43488682
      0.71950000	      1.12358275	      1.08170332	      5.69632842	     -0.37186412	      1.07480295	      0.30040814	      7.33004568	     -0.57602893	     -5.20413627	    -23.03251599	     15.22656546	     -4.58087498	      4.26980984	     19.92476178	     -2.48020640	     -5.92303383	    -68.50609185	      4.80886668	     10.47359089	      5.54725890	    -10.12132732	      2.09885645	      0.48481653
      0.72366667	      1.09441772	      1.29134774	      5.58922253	     -0.36591640	      1.07595255	      0.30033428	      6.76003148	     -0.75915844	     -5.10554982	    -22.53141561	     15.23768969	     -4.53528380	      4.28624240	     20.32049527	     -2.18716807	     -6.18243879	    -67.59291780	      5.11747826	     10.98472667	      5.60392064	    -10.07226315	      1.87001089	      0.56961127
      0.72783333	      1.08236967	      1.48624473	      5.47588810	     -0.35997569	      1.07705490	      0.30028443	      6.17059640	     -0.92120595	     -4.99157958	    -22.01923343	     15.26060569	     -4.51014251	      4.31192831	     20.68615205	     -1.92242744	     -6.44009993	    -66.63834754	      5.41704020	     11.47267103	      5.68866156	    -10.04281679	      1.64310608	      0.72046603
      0.73200000	      1.06170522	      1.69480217	      5.36201935	     -0.35405749	      1.07810717	      0.30021100	      5.59750188	     -1.10423464	     -4.88088225	    -21.51928687	     15.25245868	     -4.48733342	      4.33660148	     21.04086608	     -1.63232439	     -6.67461454	    -65.62046384	      5.69161083	     11.88220625	      5.77482255	    -10.01183469	      1.40932737	      0.84171118
      0.73616667	      0.99286760	      1.91236944	      5.24407059	     -0.34812450	      1.07901023	      0.30013503	      5.09082667	     -1.30764268	     -4.78715295	    -21.04747979	     15.23770515	     -4.45772058	      4.34956421	     21.42907510	     -1.32726921	     -6.89910130	    -64.55162122	      5.94899837	     12.23141314	      5.82820204	     -9.91416914	      1.16705798	      0.91020791
      0.74033333	      0.96207297	      2.10116451	      5.12391517	     -0.34221878	      1.07989678	      0.30006595	      4.53953003	     -1.47274045	     -4.67383963	    -20.55675485	     15.24992269	     -4.44771397	      4.36718879	     21.76873916	     -1.06637782	     -7.11241711	    -63.44888259	      6.19364328	     12.54909130	      5.90121412	     -9.86718408	      0.94698641	      1.05325890
      0.74450000	      0.91039290	      2.28919622	      5.00390448	     -0.33633541	      1.08068407	      0.29998112	      4.01880115	     -1.64229011	     -4.55881944	    -20.07478276	     15.21753336	     -4.44242695	      4.39120253	     22.11668684	     -0.79609305	     -7.29654591	    -62.29946746	      6.43462201	     12.78487273	      6.01260778	     -9.80841623	      0.72330522	      1.23042324
      0.74866667	      0.84695908	      2.48876125	      4.88167149	     -0.33044361	      1.08139001	      0.29991201	      3.52004793	     -1.82874274	     -4.46198834	    -19.61450533	     15.23415133	     -4.42930402	      4.40224111	     22.45612212	     -0.51818246	     -7.47599240	    -61.09556996	      6.63063845	     12.96733481	      6.07474616	     -9.71536510	      0.49476065	      1.31014893
      0.75283333	      0.76139613	      2.66528126	      4.77061910	     -0.32458129	      1.08196186	      0.29979487	      3.05499904	     -1.99785209	     -4.38291083	    -19.16786425	     15.21644137	     -4.40755318	      4.40583738	     22.81471441	     -0.25309469	     -7.61007060	    -59.86340026	      6.84096764	     13.08980832	      6.11127934	     -9.60770311	      0.29758643	      1.38300766
      0.75700000	      0.70964453	      2.84525366	      4.64795228	     -0.31873711	      1.08253427	      0.29971825	      2.55050966	     -2.16477583	     -4.28077915	    -18.70733814	     15.24038729	     -4.40201231	      4.41128625	     23.11541807	      0.00205386	     -7.74737400	    -58.57888240	      6.99824997	     13.13160999	      6.17245724	     -9.54160236	      0.07843912	      1.55783210
      0.76116667	      0.62509912	      3.01675317	      4.53283658	     -0.31289958	      1.08297542	      0.29961806	      2.09248757	     -2.33041097	     -4.20074350	    -18.26740025	     15.24499754	     -4.38592882	      4.41321091	     23.43818247	      0.25797277	     -7.84669406	    -57.25441664	      7.15596652	     13.12107120	      6.22766628	     -9.43922344	     -0.12586038	      1.68769157
      0.76533333	      0.52419202	      3.17189453	      4.42761656	     -0.30709185	      1.08328798	      0.29948543	      1.66230145	     -2.48434184	     -4.14425624	    -17.84281113	     15.23799774	     -4.35918271	      4.41190634	     23.76997754	      0.50208821	     -7.90883226	    -55.90068443	      7.32736170	     13.08159077	      6.25917270	     -9.31922849	     -0.30346584	      1.77055363
      0.76950000	      0.42730220	      3.33083885	      4.31734483	     -0.30129248	      1.08355172	      0.29936975	      1.23050894	     -2.64297268	     -4.08541219	    -17.42144150	     15.25586172	     -4.33480405	      4.40920551	     24.07497655	      0.74754530	     -7.95499495	    -54.49367216	      7.44936683	     12.95381447	      6.29009546	     -9.20809187	     -0.49470347	      1.88477497
      0.77366667	      0.35134361	      3.47726680	      4.21177706	     -0.29552202	      1.08376783	      0.29924278	      0.77590762	     -2.78840752	     -4.03944254	    -16.99421509	     15.30631805	     -4.29068340	      4.40359544	     24.34426456	      0.97994985	     -7.97091399	    -53.05004249	      7.53177982	     12.73458567	      6.33778681	     -9.12190430	     -0.67282281	      2.05852622
      0.77783333	      0.22787932	      3.60518517	      4.11288820	     -0.28975949	      1.08381807	      0.29909257	      0.38464826	     -2.92068434	     -4.00570272	    -16.58825219	     15.33935298	     -4.23506849	      4.39414824	     24.65146525	      1.20101831	     -7.94438916	    -51.57386288	      7.62707225	     12.50002653	      6.39144812	     -8.98826725	     -0.83368770	      2.20128366
      0.78200000	      0.12242051	      3.73883907	      4.01420516	     -0.28402081	      1.08383973	      0.29895197	     -0.01940846	     -3.06009347	     -3.99224038	    -16.19453249	     15.35525601	     -4.19296006	      4.38551442	     24.91571919	      1.42435501	     -7.89813785	    -50.04628057	      7.72020699	     12.26217719	      6.42300997	     -8.87416377	     -0.99401717	      2.28916958
      0.78616667	      0.00508112	      3.84679657	      3.92617932	     -0.27829651	      1.08374189	      0.29878128	     -0.41221641	     -3.17418366	     -3.98866913	    -15.79382335	     15.42826639	     -4.10447499	      4.37118952	     25.18369699	      1.62827424	     -7.80270829	    -48.49509116	      7.76109496	     11.90171853	      6.47494246	     -8.75382139	     -1.12651099	      2.43849572
      0.79033333	     -0.12528164	      3.95400269	      3.83536375	     -0.27257730	      1.08355887	      0.29861451	     -0.77904417	     -3.29118959	     -3.99903513	    -15.41669512	     15.45752238	     -4.04703003	      4.35848180	     25.44082470	      1.82778891	     -7.68733849	    -46.89770661	      7.82472891	     11.59163818	      6.50773940	     -8.61719094	     -1.26330915	      2.52729680
